<svg width="900" height="760" viewBox="0 0 900 760" fill="none" xmlns="http://www.w3.org/2000/svg">
  <rect width="900" height="760" rx="48" fill="#FFF9FB"/>
  <circle cx="190" cy="138" r="16" fill="#FFD76C"/>
  <circle cx="744" cy="116" r="12" fill="#A49CFF"/>
  <circle cx="774" cy="170" r="8" fill="#79E7D6"/>
  <circle cx="132" cy="204" r="10" fill="#7ED5FF"/>
  <path d="M198 126L204 146L224 152L204 158L198 178L192 158L172 152L192 146L198 126Z" fill="#FFE9A8"/>
  <path d="M758 246L764 266L784 272L764 278L758 298L752 278L732 272L752 266L758 246Z" fill="#DCD8FF"/>
  <path d="M670 136L674 150L688 154L674 158L670 172L666 158L652 154L666 150L670 136Z" fill="#A6EEFF"/>
  <ellipse cx="450" cy="626" rx="202" ry="54" fill="#DDD8FF"/>
  <path d="M538 222C633 222 702 282 702 358C702 436 624 494 536 494H364C308 494 264 451 264 398C264 356 292 319 334 308C344 251 402 222 478 222H538Z" fill="#FFFDFB"/>
  <path d="M564 258C620 258 665 295 665 344C665 394 620 430 564 430H384C347 430 316 401 316 364C316 329 343 301 377 298C392 273 426 258 468 258H564Z" fill="#F4F3FF"/>
  <path d="M444 206C472 168 514 144 544 142C567 141 583 159 576 182C567 211 535 233 492 247L444 206Z" fill="#FFD76C"/>
  <path d="M458 212C479 185 510 163 531 162C547 161 556 173 552 188C547 209 524 225 493 234L458 212Z" fill="#FFF3B3"/>
  <path d="M354 298C392 255 454 236 520 236C617 236 686 301 686 388C686 420 676 449 656 473L698 548C705 561 690 575 677 568L603 530C576 542 544 548 510 548C416 548 336 491 336 404C336 365 351 328 377 299L354 298Z" fill="#FFFFFF"/>
  <path d="M383 317C413 281 462 262 516 262C595 262 650 311 650 379C650 446 590 499 515 499C440 499 376 446 376 379C376 355 384 334 398 317H383Z" fill="#FFF8FC"/>
  <path d="M640 352C661 337 688 346 694 368C701 393 686 419 662 430C646 438 629 439 619 433C626 412 630 390 630 368C630 363 629 357 629 352C632 353 636 354 640 352Z" fill="#FFFDFB"/>
  <path d="M334 362C313 348 286 356 279 379C271 404 286 430 311 442C328 450 345 451 355 445C347 423 342 401 342 379C342 373 343 367 344 361C341 362 338 364 334 362Z" fill="#FFFDFB"/>
  <ellipse cx="438" cy="392" rx="19" ry="25" fill="#26161E"/>
  <ellipse cx="565" cy="392" rx="19" ry="25" fill="#26161E"/>
  <ellipse cx="431" cy="384" rx="6" ry="8" fill="#FFFFFF"/>
  <ellipse cx="558" cy="384" rx="6" ry="8" fill="#FFFFFF"/>
  <path d="M475 429C489 445 512 445 527 429" stroke="#26161E" stroke-width="10" stroke-linecap="round"/>
  <ellipse cx="397" cy="436" rx="25" ry="15" fill="#DDD8FF"/>
  <ellipse cx="603" cy="436" rx="25" ry="15" fill="#DDD8FF"/>
  <path d="M371 304C343 256 323 220 307 214C291 209 268 223 266 243C264 270 299 312 327 333L371 304Z" fill="#7ED5FF"/>
  <path d="M350 294C315 245 290 220 273 223C256 226 247 243 251 260C259 291 297 321 321 338L350 294Z" fill="#A49CFF"/>
  <path d="M333 306C296 278 250 267 224 281C205 291 203 314 221 328C248 350 299 349 338 335L333 306Z" fill="#B3A9FF"/>
  <path d="M622 304C650 256 670 220 686 214C702 209 725 223 727 243C729 270 694 312 666 333L622 304Z" fill="#A6EEFF"/>
  <path d="M643 294C678 245 703 220 720 223C737 226 746 243 742 260C734 291 696 321 672 338L643 294Z" fill="#7ED5FF"/>
  <path d="M660 306C697 278 743 267 769 281C788 291 790 314 772 328C745 350 694 349 655 335L660 306Z" fill="#A49CFF"/>
  <path d="M288 544C321 540 343 563 346 594C349 630 324 664 293 666C263 669 239 638 242 602C244 573 259 550 288 544Z" fill="#FFFDFB"/>
  <path d="M380 559C412 555 433 577 436 607C439 642 417 676 387 679C358 682 334 652 336 618C339 588 351 563 380 559Z" fill="#FFFDFB"/>
  <path d="M520 559C552 555 573 577 576 607C579 642 557 676 527 679C498 682 474 652 476 618C479 588 491 563 520 559Z" fill="#FFFDFB"/>
  <path d="M612 544C645 540 667 563 670 594C673 630 648 664 617 666C587 669 563 638 566 602C568 573 583 550 612 544Z" fill="#FFFDFB"/>
</svg>
